<svg style="height: 512px; width: 512px;" xmlns="http://www.w3.org/2000/svg" viewBox="0 0 512 512"><path d="M0 0h512v512H0z" fill="#000" fill-opacity="1"></path><g class="" style="" transform="translate(0,0)"><path d="M79.238 115.768l-28.51 67.863h406.15l-.273-67.862h-263.83v55.605h-15v-55.605h-16.68v55.605H146.1v-55.605h-17.434v55.605h-15v-55.605H79.238zm387.834 15.96v40.66h18.688v-40.66h-18.688zM56.768 198.63l20.566 32.015L28.894 406.5l101.68 7.174 21.54-97.996h115.74l14.664-80.252 174.55-3.873-.13-32.922H56.767zM263.44 235.85l-11.17 61.142h-96.05l12.98-59.05 12.53-.278-2.224 35.5 14.262 13.576 1.003-33.65 24.69-16.264 43.98-.976z" fill="#fff" fill-opacity="1"></path></g><g font-family="Arial, Helvetica, sans-serif" font-size="175" font-style="normal" font-weight="bold" text-anchor="middle" text-decoration=" rgba(126, 211, 33, 1)" class="" style="" transform="translate(256,300)"><g><text stroke="rgba(0, 0, 0, 1)" stroke-width="43.75"><tspan x="0" y="0"></tspan><tspan x="0" y="175">1</tspan></text><text fill="rgba(126, 211, 33, 1)"><tspan x="0" y="0"></tspan><tspan x="0" y="175">1</tspan></text></g></g></svg>